<svg xmlns="http://www.w3.org/2000/svg" width="18" height="18" viewBox="0 0 18 18" fill="none">
<path fill-rule="evenodd" clip-rule="evenodd" d="M12.4891 5.75168L9.49475 3.18535C9.35495 3.06279 9.17846 3.00009 9.00104 3C8.87964 2.99994 8.75781 3.02919 8.647 3.08863C8.59762 3.11505 8.55071 3.14732 8.50732 3.18535L5.51293 5.75168C5.19842 6.02123 5.16197 6.49471 5.43152 6.80922C5.70107 7.12372 6.17454 7.16017 6.48905 6.89062L8.25099 5.38056V11.189C8.25099 11.6033 8.58677 11.939 9.00099 11.939C9.4152 11.939 9.75099 11.6033 9.75099 11.189L9.75099 5.38048L11.513 6.89062C11.8275 7.16017 12.301 7.12372 12.5706 6.80922C12.8401 6.49471 12.8037 6.02123 12.4891 5.75168ZM4.50098 10.5C4.50098 10.0858 4.83676 9.75 5.25098 9.75H6.37598C6.79019 9.75 7.12598 9.41421 7.12598 9C7.12598 8.58579 6.79019 8.25 6.37598 8.25H5.25098C4.00834 8.25 3.00098 9.25736 3.00098 10.5V12.75C3.00098 13.9926 4.00834 15 5.25098 15H12.751C13.9936 15 15.001 13.9926 15.001 12.75V10.5C15.001 9.25736 13.9936 8.25 12.751 8.25H11.626C11.2118 8.25 10.876 8.58579 10.876 9C10.876 9.41421 11.2118 9.75 11.626 9.75H12.751C13.1652 9.75 13.501 10.0858 13.501 10.5V12.75C13.501 13.1642 13.1652 13.5 12.751 13.5H5.25098C4.83676 13.5 4.50098 13.1642 4.50098 12.75V10.5Z" fill="#0F3659"/>
</svg>