<svg width="20" height="29" viewBox="0 0 20 29" fill="none" xmlns="http://www.w3.org/2000/svg">
<path fill-rule="evenodd" clip-rule="evenodd" d="M12.9966 25.984H7.00408C6.80406 25.984 6.65467 26.1335 6.55351 26.2829C6.45464 26.4324 6.50527 26.6301 6.60403 26.7795L7.65228 28.1724C8.05209 28.669 8.60153 28.9678 9.25213 28.9678H10.7508C11.399 28.9678 11.999 28.669 12.3484 28.1724L13.3965 26.7795C13.4978 26.6301 13.546 26.4324 13.4472 26.2829C13.346 26.083 13.1966 25.984 12.9966 25.984Z" fill="black"/>
<path fill-rule="evenodd" clip-rule="evenodd" d="M13.9972 24.2855H6.00467C5.70589 24.2855 5.50586 24.4856 5.50586 24.7844C5.50586 25.0809 5.70589 25.2808 6.00467 25.2808H7.57698H8.00445H13.9972C14.296 25.2808 14.496 25.0809 14.496 24.7844C14.496 24.4856 14.296 24.2855 13.9972 24.2855Z" fill="black"/>
<path fill-rule="evenodd" clip-rule="evenodd" d="M13.9972 22.589H6.00467C5.70589 22.589 5.50586 22.7866 5.50586 23.0855C5.50586 23.3844 5.70589 23.582 6.00467 23.582H11.9996H13.011H13.9972C14.296 23.582 14.496 23.3844 14.496 23.0855C14.496 22.7866 14.296 22.589 13.9972 22.589Z" fill="black"/>
<path fill-rule="evenodd" clip-rule="evenodd" d="M11.9987 12.4359V11.4406C11.9987 10.8935 12.4468 10.4453 12.9963 10.4453C13.5457 10.4453 13.9963 10.8935 13.9963 11.4406C13.9963 11.9878 13.5457 12.4359 12.9963 12.4359H11.9987ZM16.1432 16.8126C14.8949 18.0562 13.9963 19.4469 13.5962 20.8905H11.9987V13.429H12.9963C14.095 13.429 14.9939 12.5348 14.9939 11.4406C14.9939 10.3465 14.095 9.44992 12.9963 9.44992C11.8975 9.44992 10.9988 10.3465 10.9988 11.4406V12.4359H9.00115V11.4406C9.00115 10.3465 8.10241 9.44992 7.00377 9.44992C5.90488 9.44992 5.00614 10.3465 5.00614 11.4406C5.00614 12.5348 5.90488 13.429 7.00377 13.429H8.00353V20.8905H6.40368C6.00375 19.4469 5.10489 18.0562 3.85686 16.8126C1.76048 14.8219 0.760468 12.0383 1.05925 9.15341C1.56045 4.9239 4.9555 1.54261 9.20117 1.04608C9.45184 1.04608 9.69998 0.995562 10.0012 0.995562C10.2999 0.995562 10.5506 1.04608 10.7989 1.04608C15.0444 1.54261 18.4901 4.9239 18.9406 9.15341C19.2395 12.0383 18.2418 14.8219 16.1432 16.8126ZM10.9988 20.8905H9.00115V13.429H10.9988V20.8905ZM8.00353 12.4359H7.00377C6.45432 12.4359 6.00376 11.9878 6.00376 11.4406C6.00376 10.8935 6.45432 10.4453 7.00377 10.4453C7.55309 10.4453 8.00353 10.8935 8.00353 11.4406V12.4359ZM19.9383 9.05226C19.4395 4.32861 15.6444 0.54727 10.9483 0.0507374C10.6494 0.0507374 10.3506 0.000101089 10.0012 0.000101089C9.65174 0.000101089 9.35056 0.0507374 9.05178 0.0507374C4.35567 0.597786 0.560438 4.37685 0.06163 9.05226C-0.287667 12.2359 0.861619 15.3691 3.15803 17.5574C4.40618 18.7526 5.20616 20.1433 5.50494 21.4881C5.55546 21.7364 5.75549 21.8857 6.00376 21.8857H13.9963C14.2444 21.8857 14.4445 21.7364 14.4951 21.4881C14.7455 20.1433 15.5937 18.7526 16.8419 17.5574C19.1406 15.3207 20.2876 12.2359 19.9383 9.05226Z" fill="black"/>
</svg>
