<svg width="100" height="38" viewBox="0 0 100 38" fill="none" xmlns="http://www.w3.org/2000/svg">
<path fill-rule="evenodd" clip-rule="evenodd" d="M15.1234 15.4221C15.1234 13.0757 14.4602 11.3801 13.134 10.3259C11.8053 9.27169 10.0272 8.74699 7.79729 8.74699C6.60222 8.74699 5.35609 8.97063 4.05655 9.41501C2.757 9.85952 1.66637 10.513 0.782145 11.3729L2.18619 13.0197C3.79906 11.6304 5.66214 10.9332 7.78029 10.9332C9.26207 10.9332 10.4887 11.271 11.4676 11.9486C12.4465 12.6263 12.9372 13.7461 12.9372 15.3055V16.3987H10.1584C9.25717 16.3987 8.21996 16.4618 7.04436 16.5808C5.86375 16.7023 4.7537 16.9742 3.70918 17.3922C2.66465 17.8148 1.78542 18.444 1.07121 19.2795C0.357053 20.1175 0 21.2519 0 22.6851C0 23.6858 0.191917 24.5384 0.575701 25.2404C0.959437 25.9448 1.45741 26.5206 2.06716 26.9627C2.67685 27.4097 3.36912 27.7326 4.13674 27.9368C4.90426 28.1407 5.68887 28.2427 6.4856 28.2427C8.05241 28.2427 9.34463 27.961 10.3649 27.3999C11.3875 26.8388 12.245 25.9571 12.9348 24.7523H12.9372C12.9372 25.8259 13.0562 26.8072 13.3016 27.6962H15.4853C15.4052 27.1643 15.342 26.6299 15.3031 26.0956C15.2619 25.5635 15.2279 24.9904 15.2036 24.3781C15.1744 23.766 15.155 23.1004 15.1429 22.379C15.1283 21.66 15.1234 20.8463 15.1234 19.9403V15.4221ZM12.9372 18.4026V19.6535C12.9372 20.4333 12.8424 21.2034 12.6579 21.9685C12.4733 22.7337 12.1332 23.4187 11.645 24.0234C11.1543 24.6259 10.496 25.1166 9.67743 25.4931C8.8564 25.8671 7.80945 26.0566 6.53906 26.0566C6.03624 26.0566 5.54074 25.9813 5.05007 25.8332C4.56179 25.685 4.11727 25.4712 3.71886 25.1895C3.32055 24.9076 2.99507 24.5457 2.74485 24.1036C2.49463 23.6591 2.36833 23.1539 2.36833 22.5904C2.36833 21.7888 2.59429 21.1159 3.04359 20.5791C3.493 20.0423 4.09301 19.6123 4.85084 19.2892C5.60631 18.9663 6.45403 18.7378 7.39409 18.6043C8.33416 18.4707 9.3058 18.4026 10.3138 18.4026H12.9372Z" fill="#2B2D30"/>
<path fill-rule="evenodd" clip-rule="evenodd" d="M35.3486 9.11152H32.9803L32.956 12.3543H32.9803C32.2832 11.2321 31.3383 10.3528 30.148 9.70908C28.9578 9.06787 27.561 8.74708 25.9554 8.74708C24.5879 8.74708 23.3004 8.99982 22.0955 9.50745C20.8932 10.0127 19.8415 10.6928 18.9452 11.5455C18.0488 12.3981 17.3394 13.3988 16.8197 14.543C16.295 15.6894 16.0352 16.9161 16.0352 18.2206C16.0352 19.5274 16.295 20.754 16.8197 21.8982C17.3394 23.0471 18.0488 24.0503 18.9452 24.9175C19.8415 25.7822 20.8932 26.4623 22.0955 26.9556C23.3004 27.451 24.5879 27.6963 25.9554 27.6963C27.561 27.6963 28.9578 27.3806 30.148 26.7442C31.3383 26.1126 32.2832 25.2405 32.9803 24.1305V26.6907C32.9803 27.0381 32.9658 27.4899 32.9415 28.0485C32.9123 28.6072 32.8273 29.2023 32.679 29.8291C32.5309 30.4533 32.305 31.0801 31.999 31.7067C31.6905 32.3334 31.2605 32.9068 30.7139 33.4266C30.1649 33.9439 29.4703 34.3667 28.6274 34.6872C27.7845 35.0031 26.7521 35.1658 25.5207 35.1658C24.0753 35.1658 22.7126 34.8839 21.4301 34.3252C20.1475 33.7617 19.0764 32.88 18.2212 31.6777L16.3411 33.4411C16.8197 34.0558 17.3857 34.6046 18.0391 35.0881C18.695 35.574 19.4212 35.9819 20.2204 36.322C21.0196 36.6547 21.8698 36.9122 22.7637 37.0896C23.6575 37.2644 24.5708 37.3518 25.5036 37.3518C26.4388 37.3518 27.4784 37.2158 28.625 36.9511C29.7715 36.6814 30.8451 36.1568 31.8483 35.3819C32.8468 34.6022 33.6799 33.5042 34.3479 32.0833C35.0135 30.6599 35.3486 28.7967 35.3486 26.4916V9.11152ZM32.4021 21.0697C32.0159 21.9589 31.4986 22.7313 30.8475 23.3799C30.199 24.0285 29.4266 24.5458 28.54 24.9321C27.6508 25.3182 26.7011 25.5102 25.6931 25.5102C24.6826 25.5102 23.7304 25.3182 22.8438 24.9321C21.9548 24.5458 21.1822 24.0285 20.5337 23.3799C19.8852 22.7313 19.3653 21.9589 18.9816 21.0697C18.5954 20.1833 18.4034 19.231 18.4034 18.2206C18.4034 17.2125 18.5954 16.2627 18.9816 15.3737C19.3653 14.4847 19.8852 13.7146 20.5337 13.066C21.1822 12.4151 21.9548 11.8977 22.8438 11.5115C23.7304 11.1252 24.6826 10.9333 25.6931 10.9333C26.7011 10.9333 27.6508 11.1252 28.54 11.5115C29.4266 11.8977 30.199 12.4151 30.8475 13.066C31.4986 13.7146 32.0159 14.4847 32.4021 15.3737C32.786 16.2627 32.9803 17.2125 32.9803 18.2206C32.9803 19.231 32.786 20.1833 32.4021 21.0697Z" fill="#2B2D30"/>
<path fill-rule="evenodd" clip-rule="evenodd" d="M36.6411 27.6963H39.0095V18.478C39.0095 17.2028 39.1747 16.0878 39.5051 15.1429C39.8354 14.198 40.2823 13.4159 40.8508 12.7891C41.4167 12.1624 42.0895 11.6984 42.8693 11.3899C43.649 11.0863 44.4749 10.9333 45.3469 10.9333C46.2968 10.9333 47.0692 11.1009 47.6643 11.4313C48.2569 11.764 48.7209 12.211 49.0513 12.7697C49.3792 13.3259 49.6099 13.9599 49.7412 14.6644C49.8723 15.3712 49.9403 16.095 49.9403 16.8408V27.6963H52.3111V16.6999C52.3111 15.6894 52.2116 14.7056 52.0147 13.7461C51.8155 12.7867 51.4585 11.9413 50.946 11.2054C50.431 10.4718 49.7242 9.87906 48.8302 9.42722C47.9339 8.97297 46.7753 8.74705 45.3519 8.74705C43.875 8.74705 42.5826 9.11389 41.4774 9.84503C40.3698 10.5786 39.5779 11.4506 39.1067 12.4636H39.0095C38.9464 12.2717 38.91 11.8442 38.8953 11.1811C38.8783 10.5203 38.854 9.82808 38.8274 9.11148H36.459C36.459 9.35195 36.4687 9.6945 36.4954 10.1366C36.5173 10.5786 36.5367 11.0547 36.5489 11.5649C36.5611 12.075 36.578 12.5778 36.6023 13.0733C36.6266 13.5688 36.6411 13.9939 36.6411 14.3413V27.6963Z" fill="#2B2D30"/>
<path fill-rule="evenodd" clip-rule="evenodd" d="M53.9683 27.6963H56.3367V9.11148H53.9683V27.6963ZM53.949 3.1165C54.2987 3.47119 54.7311 3.6436 55.2435 3.6436C55.7561 3.6436 56.1861 3.47119 56.5383 3.1165C56.8881 2.76674 57.0654 2.33438 57.0654 1.82182C57.0654 1.30938 56.8881 0.879429 56.5383 0.52714C56.1861 0.17738 55.7561 3.24249e-05 55.2435 3.24249e-05C54.7311 3.24249e-05 54.2987 0.17738 53.949 0.52714C53.5943 0.879429 53.4219 1.30938 53.4219 1.82182C53.4219 2.33438 53.5943 2.76674 53.949 3.1165Z" fill="#2B2D30"/>
<path fill-rule="evenodd" clip-rule="evenodd" d="M72.03 23.4915C71.4154 24.2639 70.6868 24.8883 69.8439 25.3545C69.0009 25.8211 68.0731 26.0566 67.0601 26.0566C65.9355 26.0566 64.9176 25.8575 64.0116 25.4542C63.1031 25.0559 62.3283 24.5165 61.687 23.8341C61.0433 23.1563 60.5574 22.3571 60.2247 21.4341C59.8871 20.516 59.7219 19.537 59.7219 18.495C59.7219 17.4553 59.8871 16.4764 60.2247 15.5533C60.5574 14.6327 61.0433 13.8335 61.687 13.1533C62.3283 12.4757 63.1031 11.934 64.0116 11.5332C64.9176 11.1348 65.9355 10.9332 67.0601 10.9332C68.022 10.9332 68.9159 11.1543 69.7441 11.5964C70.5725 12.0361 71.3353 12.6433 72.03 13.4182L73.9539 11.9753C73.043 10.9551 72.0081 10.1632 70.847 9.59717C69.6835 9.03135 68.4205 8.74699 67.0601 8.74699C65.6415 8.74699 64.3323 8.98758 63.1298 9.46852C61.9275 9.94945 60.8999 10.6247 60.0498 11.4943C59.1996 12.364 58.5365 13.3915 58.0628 14.5817C57.5916 15.7719 57.3535 17.0763 57.3535 18.495C57.3535 19.9111 57.5916 21.2155 58.0628 22.4057C58.5365 23.596 59.1996 24.6259 60.0498 25.4956C60.8999 26.3651 61.9275 27.0405 63.1298 27.5213C64.3323 28 65.6415 28.2427 67.0601 28.2427C68.396 28.2427 69.6373 27.9781 70.7863 27.4534C71.9377 26.9262 72.9651 26.1125 73.8737 25.0145L72.03 23.4915Z" fill="#2B2D30"/>
<path fill-rule="evenodd" clip-rule="evenodd" d="M75.2906 27.6963H77.659V9.11148H75.2906V27.6963ZM75.2687 3.1165C75.621 3.47119 76.0534 3.6436 76.5659 3.6436C77.0785 3.6436 77.5083 3.47119 77.8606 3.1165C78.2104 2.76674 78.3877 2.33438 78.3877 1.82182C78.3877 1.30938 78.2104 0.879429 77.8606 0.52714C77.5083 0.17738 77.0785 3.24249e-05 76.5659 3.24249e-05C76.0534 3.24249e-05 75.621 0.17738 75.2687 0.52714C74.9166 0.879429 74.7441 1.30938 74.7441 1.82182C74.7441 2.33438 74.9166 2.76674 75.2687 3.1165Z" fill="#2B2D30"/>
<path fill-rule="evenodd" clip-rule="evenodd" d="M92.5995 32.9237H86.2671C86.0557 32.9237 85.8978 33.0816 85.7909 33.2395C85.6864 33.3975 85.7399 33.6063 85.8443 33.7642L86.952 35.2362C87.3745 35.7609 87.9551 36.0767 88.6426 36.0767H90.2264C90.9113 36.0767 91.5453 35.7609 91.9146 35.2362L93.0221 33.7642C93.1292 33.6063 93.1801 33.3975 93.0757 33.2395C92.9688 33.0283 92.8109 32.9237 92.5995 32.9237Z" fill="black"/>
<path fill-rule="evenodd" clip-rule="evenodd" d="M93.6547 31.1287H85.2088C84.893 31.1287 84.6816 31.3401 84.6816 31.6559C84.6816 31.9692 84.893 32.1804 85.2088 32.1804H86.8703H87.322H93.6547C93.9704 32.1804 94.1818 31.9692 94.1818 31.6559C94.1818 31.3401 93.9704 31.1287 93.6547 31.1287Z" fill="black"/>
<path fill-rule="evenodd" clip-rule="evenodd" d="M93.6547 29.3361H85.2088C84.893 29.3361 84.6816 29.5449 84.6816 29.8608C84.6816 30.1766 84.893 30.3855 85.2088 30.3855H91.5438H92.6125H93.6547C93.9704 30.3855 94.1818 30.1766 94.1818 29.8608C94.1818 29.5449 93.9704 29.3361 93.6547 29.3361Z" fill="black"/>
<path fill-rule="evenodd" clip-rule="evenodd" d="M91.5446 18.6066V17.5548C91.5446 16.9767 92.0182 16.503 92.5988 16.503C93.1794 16.503 93.6555 16.9767 93.6555 17.5548C93.6555 18.133 93.1794 18.6066 92.5988 18.6066H91.5446ZM95.9242 23.2315C94.6051 24.5457 93.6555 26.0153 93.2328 27.5408H91.5446V19.656H92.5988C93.7599 19.656 94.7098 18.7111 94.7098 17.5548C94.7098 16.3987 93.7599 15.4512 92.5988 15.4512C91.4377 15.4512 90.488 16.3987 90.488 17.5548V18.6066H88.377V17.5548C88.377 16.3987 87.4273 15.4512 86.2663 15.4512C85.1051 15.4512 84.1554 16.3987 84.1554 17.5548C84.1554 18.7111 85.1051 19.656 86.2663 19.656H87.3228V27.5408H85.6322C85.2096 26.0153 84.2597 24.5457 82.9409 23.2315C80.7256 21.1279 79.6688 18.1864 79.9846 15.1379C80.5142 10.6684 84.1019 7.09531 88.5884 6.57061C88.8533 6.57061 89.1155 6.51723 89.4338 6.51723C89.7495 6.51723 90.0144 6.57061 90.2767 6.57061C94.7631 7.09531 98.4043 10.6684 98.8803 15.1379C99.1962 18.1864 98.142 21.1279 95.9242 23.2315ZM90.488 27.5408H88.377V19.656H90.488V27.5408ZM87.3228 18.6066H86.2663C85.6857 18.6066 85.2096 18.133 85.2096 17.5548C85.2096 16.9767 85.6857 16.503 86.2663 16.503C86.8468 16.503 87.3228 16.9767 87.3228 17.5548V18.6066ZM99.9346 15.031C99.4075 10.0394 95.3971 6.0435 90.4346 5.5188C90.1187 5.5188 89.803 5.46529 89.4338 5.46529C89.0645 5.46529 88.7463 5.5188 88.4305 5.5188C83.468 6.09689 79.4575 10.0903 78.9304 15.031C78.5612 18.3953 79.7757 21.7061 82.2024 24.0186C83.5214 25.2817 84.3667 26.7513 84.6825 28.1723C84.7359 28.4347 84.9472 28.5925 85.2096 28.5925H93.6555C93.9178 28.5925 94.1291 28.4347 94.1827 28.1723C94.4473 26.7513 95.3436 25.2817 96.6626 24.0186C99.0917 21.655 100.304 18.3953 99.9346 15.031Z" fill="black"/>
</svg>
